<mxfile host="app.diagrams.net" agent="Mozilla/5.0 (Macintosh; Intel Mac OS X 10_15_7) AppleWebKit/537.36 (KHTML, like Gecko) Chrome/129.0.0.0 Safari/537.36" version="24.7.12">
  <diagram name="Page-1" id="pPMbkzpgSLtbPCeR25Ku">
    <mxGraphModel dx="1318" dy="945" grid="0" gridSize="10" guides="1" tooltips="1" connect="1" arrows="1" fold="1" page="1" pageScale="1" pageWidth="1169" pageHeight="827" background="none" math="0" shadow="0">
      <root>
        <mxCell id="0" />
        <mxCell id="1" parent="0" />
        <mxCell id="_IVkNDHX0kQ2XHPlicY4-2" value="" style="verticalLabelPosition=bottom;html=1;verticalAlign=top;align=center;shape=mxgraph.floorplan.doorRight;aspect=fixed;" vertex="1" parent="1">
          <mxGeometry x="10" y="366" width="80" height="85" as="geometry" />
        </mxCell>
        <mxCell id="_IVkNDHX0kQ2XHPlicY4-3" value="" style="verticalLabelPosition=bottom;html=1;verticalAlign=top;align=center;shape=mxgraph.floorplan.doorLeft;aspect=fixed;" vertex="1" parent="1">
          <mxGeometry x="1070" y="366" width="80" height="85" as="geometry" />
        </mxCell>
        <mxCell id="_IVkNDHX0kQ2XHPlicY4-4" value="" style="verticalLabelPosition=bottom;html=1;verticalAlign=top;align=center;shape=mxgraph.floorplan.wallCorner;direction=north" vertex="1" parent="1">
          <mxGeometry x="80" y="695" width="100" height="100" as="geometry" />
        </mxCell>
        <mxCell id="_IVkNDHX0kQ2XHPlicY4-5" value="" style="verticalLabelPosition=bottom;html=1;verticalAlign=top;align=center;shape=mxgraph.floorplan.wallCorner;" vertex="1" parent="1">
          <mxGeometry x="80" y="32" width="100" height="100" as="geometry" />
        </mxCell>
        <mxCell id="_IVkNDHX0kQ2XHPlicY4-6" value="" style="verticalLabelPosition=bottom;html=1;verticalAlign=top;align=center;shape=mxgraph.floorplan.wallCorner;direction=south;" vertex="1" parent="1">
          <mxGeometry x="980" y="32" width="100" height="100" as="geometry" />
        </mxCell>
        <mxCell id="_IVkNDHX0kQ2XHPlicY4-7" value="" style="verticalLabelPosition=bottom;html=1;verticalAlign=top;align=center;shape=mxgraph.floorplan.wallCorner;direction=west" vertex="1" parent="1">
          <mxGeometry x="980" y="695" width="100" height="100" as="geometry" />
        </mxCell>
        <mxCell id="_IVkNDHX0kQ2XHPlicY4-8" value="" style="verticalLabelPosition=bottom;html=1;verticalAlign=top;align=center;shape=mxgraph.floorplan.wall;direction=south;" vertex="1" parent="1">
          <mxGeometry x="1070" y="132" width="10" height="234" as="geometry" />
        </mxCell>
        <mxCell id="_IVkNDHX0kQ2XHPlicY4-9" value="" style="verticalLabelPosition=bottom;html=1;verticalAlign=top;align=center;shape=mxgraph.floorplan.wall;direction=south;" vertex="1" parent="1">
          <mxGeometry x="1070" y="451" width="10" height="245" as="geometry" />
        </mxCell>
        <mxCell id="_IVkNDHX0kQ2XHPlicY4-10" value="" style="verticalLabelPosition=bottom;html=1;verticalAlign=top;align=center;shape=mxgraph.floorplan.wall;direction=south;" vertex="1" parent="1">
          <mxGeometry x="80" y="132" width="10" height="234" as="geometry" />
        </mxCell>
        <mxCell id="_IVkNDHX0kQ2XHPlicY4-11" value="" style="verticalLabelPosition=bottom;html=1;verticalAlign=top;align=center;shape=mxgraph.floorplan.wall;direction=south;" vertex="1" parent="1">
          <mxGeometry x="80" y="451" width="10" height="245" as="geometry" />
        </mxCell>
        <mxCell id="_IVkNDHX0kQ2XHPlicY4-12" value="" style="verticalLabelPosition=bottom;html=1;verticalAlign=top;align=center;shape=mxgraph.floorplan.wall;" vertex="1" parent="1">
          <mxGeometry x="179" y="32" width="801" height="10" as="geometry" />
        </mxCell>
        <mxCell id="_IVkNDHX0kQ2XHPlicY4-14" value="" style="verticalLabelPosition=middle;html=1;verticalAlign=middle;align=center;shape=mxgraph.floorplan.room;fillStyle=auto;gradientColor=none;fillColor=default;strokeColor=default;shadow=0;labelPosition=center;" vertex="1" parent="1">
          <mxGeometry x="90" y="508" width="202" height="287" as="geometry" />
        </mxCell>
        <mxCell id="_IVkNDHX0kQ2XHPlicY4-17" value="" style="verticalLabelPosition=bottom;html=1;verticalAlign=top;align=center;shape=mxgraph.floorplan.doorLeft;aspect=fixed;" vertex="1" parent="1">
          <mxGeometry x="108.82" y="518" width="42.35" height="45" as="geometry" />
        </mxCell>
        <mxCell id="_IVkNDHX0kQ2XHPlicY4-18" value="" style="verticalLabelPosition=bottom;html=1;verticalAlign=top;align=center;shape=mxgraph.floorplan.doorRight;aspect=fixed;" vertex="1" parent="1">
          <mxGeometry x="220" y="519" width="41.41" height="44" as="geometry" />
        </mxCell>
        <mxCell id="_IVkNDHX0kQ2XHPlicY4-19" value="" style="verticalLabelPosition=bottom;html=1;verticalAlign=top;align=center;shape=mxgraph.floorplan.wall;direction=south;" vertex="1" parent="1">
          <mxGeometry x="180" y="518" width="10" height="267" as="geometry" />
        </mxCell>
        <mxCell id="_IVkNDHX0kQ2XHPlicY4-20" value="Chef&lt;div&gt;de Dept.&lt;/div&gt;" style="text;html=1;align=center;verticalAlign=middle;resizable=0;points=[];autosize=1;strokeColor=none;fillColor=none;" vertex="1" parent="1">
          <mxGeometry x="108.82" y="631" width="63" height="41" as="geometry" />
        </mxCell>
        <mxCell id="_IVkNDHX0kQ2XHPlicY4-21" value="SecrÃ©tariat" style="text;html=1;align=center;verticalAlign=middle;resizable=0;points=[];autosize=1;strokeColor=none;fillColor=none;" vertex="1" parent="1">
          <mxGeometry x="196.99999999999997" y="638.5" width="76" height="26" as="geometry" />
        </mxCell>
      </root>
    </mxGraphModel>
  </diagram>
</mxfile>
